# Blender v2.79 (sub 0) OBJ File: 'cheap_tiger.blend'
# www.blender.org
mtllib cheap_tiger.mtl
o Cube.002_Cube.003
v 0.000000 -0.000000 -1.000000
v -0.000000 -0.000000 -0.000000
v -0.000000 1.000000 -0.000000
v 0.000000 1.000000 -1.000000
v 1.000000 -0.000000 -0.999999
v 1.000000 0.000001 0.000001
v 1.000000 1.000000 -0.000000
v 1.000000 1.000000 -1.000000
v 0.000000 -0.000000 -1.000000
v -0.000000 -0.000000 1.000000
v -0.000000 1.000000 1.000000
v 0.000000 1.000000 -1.000000
v 1.000000 -0.000000 -0.999999
v 1.000000 0.000001 1.000000
v 1.000000 1.000000 1.000000
v 1.000000 1.000000 -1.000000
v -1.000000 -0.000000 -1.000000
v -1.000000 -0.000000 -0.000000
v -1.000000 1.000000 -0.000000
v -1.000000 1.000000 -1.000000
v 0.000000 -0.000000 -0.999999
v -0.000000 0.000001 0.000001
v -0.000000 1.000000 -0.000000
v 0.000000 1.000000 -1.000000
v -1.000000 -0.000000 -1.000000
v -1.000000 -0.000000 2.000000
v -1.000000 1.000000 2.000000
v -1.000000 1.000000 -1.000000
v 0.000000 -0.000000 -0.999999
v -0.000000 0.000001 2.000000
v -0.000000 1.000000 2.000000
v 0.000000 1.000000 -1.000000
v 5.000000 0.000000 -1.000000
v 4.000000 0.000000 -1.000000
v 4.000000 1.000000 -1.000000
v 5.000000 1.000000 -1.000000
v 5.000000 -0.000000 0.000000
v 4.000000 0.000001 0.000000
v 4.000000 1.000000 0.000000
v 5.000000 1.000000 0.000000
v 5.000000 0.000000 -1.000000
v 1.000000 -0.000000 -1.000000
v 1.000000 1.000000 -1.000000
v 5.000000 1.000000 -1.000000
v 5.000000 -0.000000 0.000000
v 0.999999 0.000001 0.000000
v 1.000000 1.000000 0.000000
v 5.000000 1.000000 0.000000
v -1.000000 -0.000000 -1.000000
v -2.000000 -0.000000 -1.000000
v -2.000000 1.000000 -1.000000
v -1.000000 1.000000 -1.000000
v -1.000000 -0.000001 0.000000
v -2.000000 0.000001 0.000000
v -2.000000 1.000000 0.000000
v -1.000000 1.000000 0.000000
v -1.000000 -0.000000 -1.000000
v -5.000000 -0.000000 -1.000000
v -5.000000 1.000000 -1.000000
v -1.000000 1.000000 -1.000000
v -1.000000 -0.000001 0.000000
v -5.000000 0.000001 0.000000
v -5.000000 1.000000 0.000000
v -1.000000 1.000000 0.000000
vt 0.117064 0.994339
vt 0.216270 0.900000
vt 0.216270 0.994339
vt 0.994048 0.711321
vt 0.894841 0.805660
vt 0.894841 0.711321
vt 0.228175 0.794340
vt 0.327381 0.888679
vt 0.228175 0.888679
vt 0.994048 0.816981
vt 0.894841 0.911321
vt 0.894841 0.816981
vt 0.438492 0.900000
vt 0.339286 0.994340
vt 0.339286 0.900000
vt 0.783730 0.711321
vt 0.882937 0.805660
vt 0.783730 0.805660
vt 0.771825 0.394340
vt 0.672619 0.583019
vt 0.672619 0.394340
vt 0.005952 0.888679
vt 0.105159 0.983019
vt 0.005952 0.983019
vt 0.882937 0.816981
vt 0.783730 0.911321
vt 0.783730 0.816981
vt 0.450397 0.794340
vt 0.549603 0.888679
vt 0.450397 0.888679
vt 0.882936 0.311321
vt 0.783730 0.216981
vt 0.882936 0.216981
vt 0.549603 0.900000
vt 0.450397 0.994340
vt 0.450397 0.900000
vt 0.783730 0.605660
vt 0.882937 0.700000
vt 0.783730 0.700000
vt 0.105159 0.783019
vt 0.005952 0.877358
vt 0.005952 0.783019
vt 0.894841 0.216981
vt 0.994048 0.311321
vt 0.894841 0.311321
vt 0.994048 0.500000
vt 0.894841 0.594339
vt 0.894841 0.500000
vt 0.549603 0.783019
vt 0.450397 0.688679
vt 0.549603 0.688679
vt 0.228175 0.900000
vt 0.327381 0.994340
vt 0.228175 0.994340
vt 0.994048 0.205660
vt 0.894841 0.111321
vt 0.994048 0.111321
vt 0.105159 0.771698
vt 0.005952 0.394340
vt 0.105159 0.394340
vt 0.327381 0.383019
vt 0.228175 0.005660
vt 0.327381 0.005660
vt 0.117064 0.383019
vt 0.216270 0.005660
vt 0.216270 0.383019
vt 0.994048 0.005660
vt 0.894841 0.100000
vt 0.894841 0.005660
vt 0.660714 0.005660
vt 0.561508 0.383019
vt 0.561508 0.005660
vt 0.882937 0.394340
vt 0.783730 0.488679
vt 0.783730 0.394340
vt 0.783730 0.005660
vt 0.882936 0.100000
vt 0.783730 0.100000
vt 0.216270 0.688679
vt 0.117064 0.783019
vt 0.117064 0.688679
vt 0.216270 0.888679
vt 0.117064 0.794339
vt 0.216270 0.794339
vt 0.994048 0.605660
vt 0.894841 0.700000
vt 0.894841 0.605660
vt 0.771825 0.888679
vt 0.672619 0.794339
vt 0.771825 0.794339
vt 0.438492 0.783019
vt 0.339286 0.688679
vt 0.438492 0.688679
vt 0.771825 0.383019
vt 0.672619 0.005660
vt 0.771825 0.005660
vt 0.438492 0.383019
vt 0.339286 0.005660
vt 0.438492 0.005660
vt 0.005952 0.383019
vt 0.105159 0.005660
vt 0.105159 0.383019
vt 0.438492 0.794340
vt 0.339286 0.888679
vt 0.339286 0.794340
vt 0.549603 0.005660
vt 0.450397 0.383019
vt 0.450397 0.005660
vt 0.561508 0.888679
vt 0.660714 0.794339
vt 0.660714 0.888679
vt 0.117064 0.900000
vt 0.994048 0.805660
vt 0.327381 0.794340
vt 0.994048 0.911321
vt 0.438492 0.994340
vt 0.882937 0.711321
vt 0.771825 0.583019
vt 0.105159 0.888679
vt 0.882937 0.911321
vt 0.549603 0.794340
vt 0.783730 0.311321
vt 0.549603 0.994340
vt 0.882937 0.605660
vt 0.105159 0.877358
vt 0.994048 0.216981
vt 0.994048 0.594340
vt 0.450397 0.783019
vt 0.327381 0.900000
vt 0.894841 0.205660
vt 0.005952 0.771698
vt 0.228175 0.383019
vt 0.117064 0.005660
vt 0.994048 0.100000
vt 0.660714 0.383019
vt 0.882937 0.488679
vt 0.882936 0.005660
vt 0.216270 0.783019
vt 0.117064 0.888679
vt 0.994048 0.700000
vt 0.672619 0.888679
vt 0.339286 0.783019
vt 0.672619 0.383019
vt 0.339286 0.383019
vt 0.005952 0.005660
vt 0.438492 0.888679
vt 0.549603 0.383019
vt 0.561508 0.794339
vt 0.660714 0.583019
vt 0.561508 0.394340
vt 0.660714 0.394340
vt 0.672619 0.783019
vt 0.771825 0.594339
vt 0.771825 0.783019
vt 0.882936 0.111321
vt 0.783730 0.205660
vt 0.783730 0.111321
vt 0.561508 0.594339
vt 0.660714 0.783019
vt 0.561508 0.783019
vt 0.882937 0.500000
vt 0.783730 0.594340
vt 0.783730 0.500000
vt 0.339286 0.677358
vt 0.438492 0.394340
vt 0.438492 0.677358
vt 0.216270 0.677358
vt 0.117064 0.394340
vt 0.216270 0.394340
vt 0.450397 0.677358
vt 0.549603 0.394340
vt 0.549603 0.677358
vt 0.228175 0.688679
vt 0.327381 0.783019
vt 0.228175 0.783019
vt 0.327381 0.394340
vt 0.228175 0.677358
vt 0.228175 0.394340
vt 0.994048 0.394340
vt 0.894841 0.488679
vt 0.894841 0.394340
vt 0.561508 0.583019
vt 0.672619 0.594339
vt 0.882936 0.205660
vt 0.660714 0.594339
vt 0.882937 0.594339
vt 0.339286 0.394340
vt 0.117064 0.677358
vt 0.450397 0.394340
vt 0.327381 0.688679
vt 0.327381 0.677358
vt 0.994048 0.488679
vn 1.0000 0.0000 0.0000
vn -1.0000 0.0000 -0.0000
vn 0.0000 1.0000 0.0000
vn 0.0000 -0.0000 -1.0000
vn 0.0000 -1.0000 0.0000
vn -0.0000 0.0000 1.0000
usemtl Material.001
s off
f 1/1/1 3/2/1 2/3/1
f 6/4/2 8/5/2 5/6/2
f 2/7/3 5/8/3 1/9/3
f 3/10/4 6/11/4 2/12/4
f 3/13/5 8/14/5 7/15/5
f 8/16/6 1/17/6 5/18/6
f 9/19/2 11/20/2 12/21/2
f 17/22/1 19/23/1 18/24/1
f 22/25/2 24/26/2 21/27/2
f 18/28/3 21/29/3 17/30/3
f 19/31/4 22/32/4 18/33/4
f 19/34/5 24/35/5 23/36/5
f 24/37/6 17/38/6 21/39/6
f 36/40/6 34/41/6 33/42/6
f 37/43/4 39/44/4 40/45/4
f 34/46/3 37/47/3 33/48/3
f 35/49/1 38/50/1 34/51/1
f 36/52/5 39/53/5 35/54/5
f 40/55/2 33/56/2 37/57/2
f 42/58/4 44/59/4 41/60/4
f 45/61/6 47/62/6 46/63/6
f 45/64/5 42/65/5 41/66/5
f 46/67/2 43/68/2 42/69/2
f 47/70/3 44/71/3 43/72/3
f 41/73/1 48/74/1 45/75/1
f 52/76/6 50/77/6 49/78/6
f 53/79/4 55/80/4 56/81/4
f 50/82/3 53/83/3 49/84/3
f 51/85/1 54/86/1 50/87/1
f 52/88/5 55/89/5 51/90/5
f 56/91/2 49/92/2 53/93/2
f 58/94/4 60/95/4 57/96/4
f 61/97/6 63/98/6 62/99/6
f 61/100/5 58/101/5 57/102/5
f 62/103/2 59/104/2 58/105/2
f 63/106/3 60/107/3 59/108/3
f 57/109/1 64/110/1 61/111/1
f 1/1/1 4/112/1 3/2/1
f 6/4/2 7/113/2 8/5/2
f 2/7/3 6/114/3 5/8/3
f 3/10/4 7/115/4 6/11/4
f 3/13/5 4/116/5 8/14/5
f 8/16/6 4/117/6 1/17/6
f 9/19/2 10/118/2 11/20/2
f 17/22/1 20/119/1 19/23/1
f 22/25/2 23/120/2 24/26/2
f 18/28/3 22/121/3 21/29/3
f 19/31/4 23/122/4 22/32/4
f 19/34/5 20/123/5 24/35/5
f 24/37/6 20/124/6 17/38/6
f 36/40/6 35/125/6 34/41/6
f 37/43/4 38/126/4 39/44/4
f 34/46/3 38/127/3 37/47/3
f 35/49/1 39/128/1 38/50/1
f 36/52/5 40/129/5 39/53/5
f 40/55/2 36/130/2 33/56/2
f 42/58/4 43/131/4 44/59/4
f 45/61/6 48/132/6 47/62/6
f 45/64/5 46/133/5 42/65/5
f 46/67/2 47/134/2 43/68/2
f 47/70/3 48/135/3 44/71/3
f 41/73/1 44/136/1 48/74/1
f 52/76/6 51/137/6 50/77/6
f 53/79/4 54/138/4 55/80/4
f 50/82/3 54/139/3 53/83/3
f 51/85/1 55/140/1 54/86/1
f 52/88/5 56/141/5 55/89/5
f 56/91/2 52/142/2 49/92/2
f 58/94/4 59/143/4 60/95/4
f 61/97/6 64/144/6 63/98/6
f 61/100/5 62/145/5 58/101/5
f 62/103/2 63/146/2 59/104/2
f 63/106/3 64/147/3 60/107/3
f 57/109/1 60/148/1 64/110/1
usemtl Material.002
f 13/149/1 15/150/1 14/151/1
f 13/152/5 10/153/5 9/154/5
f 14/155/6 11/156/6 10/157/6
f 11/158/3 16/159/3 12/160/3
f 9/161/4 16/162/4 13/163/4
f 25/164/2 27/165/2 28/166/2
f 29/167/1 31/168/1 30/169/1
f 29/170/5 26/171/5 25/172/5
f 30/173/6 27/174/6 26/175/6
f 31/176/3 28/177/3 27/178/3
f 25/179/4 32/180/4 29/181/4
f 13/149/1 16/182/1 15/150/1
f 13/152/5 14/183/5 10/153/5
f 14/155/6 15/184/6 11/156/6
f 11/158/3 15/185/3 16/159/3
f 9/161/4 12/186/4 16/162/4
f 25/164/2 26/187/2 27/165/2
f 29/167/1 32/188/1 31/168/1
f 29/170/5 30/189/5 26/171/5
f 30/173/6 31/190/6 27/174/6
f 31/176/3 32/191/3 28/177/3
f 25/179/4 28/192/4 32/180/4
