# Blender v2.79 (sub 0) OBJ File: 'final_valley_skybox_together.blend'
# www.blender.org
mtllib final_valley_skybox.mtl
o Cube
v 0.500000 -0.500000 -0.500000
v 0.500000 -0.500000 0.500000
v -0.500000 -0.500000 0.500000
v -0.500000 -0.500000 -0.500000
v 0.500000 0.500000 -0.500000
v 0.499999 0.500000 0.500000
v -0.500000 0.500000 0.500000
v -0.500000 0.500000 -0.500000
vt 0.666667 0.666667
vt 0.333333 0.333333
vt 0.666667 0.333333
vt 0.333333 0.000000
vt 0.666667 -0.000000
vt -0.000000 0.000000
vt 1.000000 -0.000000
vt 0.666667 0.333333
vt 0.666667 0.000000
vt 0.000000 0.333333
vt 0.333333 0.666667
vt -0.000000 0.666667
vt 0.333333 0.666667
vt 0.000000 0.333333
vt 1.000000 0.333333
vt 0.333333 0.333333
vn 0.0000 1.0000 0.0000
vn 1.0000 -0.0000 0.0000
vn -0.0000 -0.0000 1.0000
vn -1.0000 -0.0000 -0.0000
vn 0.0000 0.0000 -1.0000
usemtl Material
s off
f 8/1/1 6/2/1 5/3/1
f 5/3/2 2/4/2 1/5/2
f 6/2/3 3/6/3 2/4/3
f 3/7/4 8/8/4 4/9/4
f 1/10/5 8/11/5 5/12/5
f 8/1/1 7/13/1 6/2/1
f 5/3/2 6/2/2 2/4/2
f 6/2/3 7/14/3 3/6/3
f 3/7/4 7/15/4 8/8/4
f 1/10/5 4/16/5 8/11/5
